# xmcd
#
# Track frame offsets:
# 150
# 16783
# 33537
# 53071
# 72522
# 95686
# 116123
# 132307
# 150815
# 168960
# 190361
# 209155
#
# Disc length: 3013 seconds
#
#
# Revision: 0
# Processed by: cddbd v1.5.2PL0 Copyright (c) Steve Scherf et al.
# Submitted via: FreeRIP 2.944 
#
DISCID=a70bc30c
DTITLE=Courtney Jones - Awake And Dreaming
DYEAR=2008
DGENRE=Country
TTITLE0=See Me
TTITLE1=Based On Real Life
TTITLE2=Only The Rain
TTITLE3=Awake and Dreaming
TTITLE4=Relief
TTITLE5=Long Way Down
TTITLE6=Make Believe
TTITLE7=Ride
TTITLE8=All For Something
TTITLE9=Passenger
TTITLE10=Change My Place
TTITLE11=Weightless
EXTD=
EXTT0=
EXTT1=
EXTT2=
EXTT3=
EXTT4=
EXTT5=
EXTT6=
EXTT7=
EXTT8=
EXTT9=
EXTT10=
EXTT11=
PLAYORDER=
